<svg xmlns="http://www.w3.org/2000/svg" viewBox="0 0 396.27 107.62"><defs><style>.cls-1{fill:#0a2494;}.cls-2{font-size:48.63px;fill:#0a0a0a;font-family:AvenirNextLTPro-Bold, Avenir Next LT Pro;font-weight:700;letter-spacing:-0.04em;}.cls-3{letter-spacing:-0.02em;}.cls-4{font-family:AvenirNextLTPro-Regular, Avenir Next LT Pro;font-weight:400;letter-spacing:-0.12em;}.cls-5{letter-spacing:-0.02em;}</style></defs><title>Asset 1</title><g id="Layer_2" data-name="Layer 2"><g id="Layer_1-2" data-name="Layer 1"><path class="cls-1" d="M81.9,22.59,53.74,6.33a17.08,17.08,0,0,0-17.05,0L8.52,22.59A17,17,0,0,0,0,37.36V69.89A17,17,0,0,0,8.52,84.64l28.17,16.27a17.08,17.08,0,0,0,17.05,0L81.9,84.64a17,17,0,0,0,8.53-14.75V37.36A17.06,17.06,0,0,0,81.9,22.59ZM42.8,25.36c7,0,15.25,2.59,19.51,8.23L55,39.35c-2.8-3.88-7.89-5.55-12.21-5.55A17.78,17.78,0,0,0,27,42.56H15.57C19.69,31.77,30.08,25.36,42.8,25.36Zm-.48,56.51c-12.7,0-22.62-6.65-26.69-17.18H26.91C30,70,35.4,73.3,42.41,73.3a15.76,15.76,0,0,0,13.07-6.23l7.67,5.39C58.44,78.38,51.45,81.87,42.32,81.87Zm33-23.38A8.8,8.8,0,0,1,68,62.4a8.83,8.83,0,0,1-7.91-5H13.62V49.87H60.14a8.41,8.41,0,0,1,3.23-3.65A8.64,8.64,0,0,1,68,44.87a8.77,8.77,0,0,1,7.31,13.62Z"/><text class="cls-2" transform="translate(112.18 41.53)">C<tspan class="cls-3" x="32" y="0">ybadot</tspan><tspan class="cls-4"><tspan x="0" y="53.93">T</tspan><tspan class="cls-5" x="22.08" y="53.93">echnologies</tspan></tspan></text></g></g></svg>