<svg xmlns="http://www.w3.org/2000/svg" viewBox="0 0 64 64"><path d="M56,39a7,7,0,1,0-7,7A7.008,7.008,0,0,0,56,39Zm-7,5a5,5,0,1,1,5-5A5.006,5.006,0,0,1,49,44Z"/><path d="M51.293 36.293L48 39.586l-1.293-1.293-1.414 1.414 2 2a1 1 0 0 0 1.414 0l4-4zM32 53a3 3 0 1 0 3 3A3 3 0 0 0 32 53zm0 4a1 1 0 1 1 1-1A1 1 0 0 1 32 57z"/><rect width="6" height="2" x="29" y="5"/><path d="M61,24H51V7a5.006,5.006,0,0,0-5-5H18a5.006,5.006,0,0,0-5,5v5H3a1,1,0,0,0-1,1V35a1,1,0,0,0,1,1H13V57a5.006,5.006,0,0,0,5,5H46a5.006,5.006,0,0,0,5-5V48H61a1,1,0,0,0,1-1V25A1,1,0,0,0,61,24Zm-1,6H38V26H60ZM18,4H46a3,3,0,0,1,3,3V8H15V7A3,3,0,0,1,18,4Zm8,10v4H4V14ZM4,20H26V34H4ZM46,60H18a3,3,0,0,1-3-3V52H49v5A3,3,0,0,1,46,60Zm3-10H15V36H27a1,1,0,0,0,1-1V13a1,1,0,0,0-1-1H15V10H49V24H37a1,1,0,0,0-1,1V47a1,1,0,0,0,1,1H49Zm0-4H38V32H60V46Z"/><rect width="2" height="2" x="39" y="27"/><rect width="2" height="2" x="42" y="27"/><rect width="2" height="2" x="45" y="27"/><path d="M9.143 21.485l-3 5a1 1 0 0 0 0 1.03l3 5 1.714-1.03L8.166 27l2.691-4.485zM20.857 21.485l-1.714 1.03L21.834 27l-2.691 4.485 1.714 1.03 3-5a1 1 0 0 0 0-1.03z"/><rect width="10.77" height="2" x="9.615" y="26" transform="rotate(-68.219 15 27)"/><rect width="2" height="2" x="5" y="15"/><rect width="2" height="2" x="8" y="15"/><rect width="2" height="2" x="11" y="15"/><rect width="2" height="2" x="30" y="14"/><rect width="4" height="2" x="34" y="14"/><polygon points="47 16 47 14 42 14 40 14 40 16 42 16 47 16"/><rect width="4" height="2" x="30" y="18"/><rect width="2" height="2" x="36" y="18"/><rect width="7" height="2" x="40" y="18"/><rect width="6" height="2" x="18" y="40"/><rect width="6" height="2" x="26" y="40"/><rect width="2" height="2" x="20" y="44"/><rect width="4" height="2" x="24" y="44"/><rect width="2" height="2" x="30" y="44"/></svg>