<svg xmlns="http://www.w3.org/2000/svg" enable-background="new 0 0 68 68" viewBox="0 0 68 68"><path d="M6.5,60.56982h55c0.27637,0,0.5-0.22363,0.5-0.5V17.34033c0-0.27637-0.22363-0.5-0.5-0.5h-55
		c-0.27637,0-0.5,0.22363-0.5,0.5v42.72949C6,60.34618,6.22363,60.56982,6.5,60.56982z M7,17.84033h54v41.72949H7V17.84033z"/><path d="M5.5,64.56982h57c1.92969,0,3.5-1.57031,3.5-3.5c0-8.35535,0-47.90788,0-54.13965c0-1.92969-1.57031-3.5-3.5-3.5h-57
		c-1.92969,0-3.5,1.57031-3.5,3.5c0,6.23177,0,45.79149,0,54.13965C2,62.9995,3.57031,64.56982,5.5,64.56982z M3,6.93017
		c0-1.37891,1.12158-2.5,2.5-2.5h57c1.37842,0,2.5,1.12109,2.5,2.5v5.91016H3V6.93017z M3,13.84033h62v47.22949
		c0,1.37891-1.12158,2.5-2.5,2.5h-57c-1.37842,0-2.5-1.12109-2.5-2.5V13.84033z"/><path d="M9.99756 6.75634c-1.04199 0-1.88965.84277-1.88965 1.87891 0 1.03516.84766 1.87793 1.88965 1.87793 1.02979 0 1.86719-.84277 1.86719-1.87793C11.86475 7.59911 11.02734 6.75634 9.99756 6.75634zM9.99756 9.51318c-.49072 0-.88965-.39355-.88965-.87793s.39893-.87891.88965-.87891c.47803 0 .86719.39453.86719.87891S10.47559 9.51318 9.99756 9.51318zM15.16602 6.75634c-1.0415 0-1.88916.84277-1.88916 1.87891 0 1.03516.84766 1.87793 1.88916 1.87793 1.02979 0 1.86719-.84277 1.86719-1.87793C17.0332 7.59911 16.1958 6.75634 15.16602 6.75634zM15.16602 9.51318c-.49023 0-.88916-.39355-.88916-.87793s.39893-.87891.88916-.87891c.47803 0 .86719.39453.86719.87891S15.64404 9.51318 15.16602 9.51318zM20.33447 6.75634c-1.0415 0-1.88916.84277-1.88916 1.87891 0 1.03516.84766 1.87793 1.88916 1.87793 1.02979 0 1.86768-.84277 1.86768-1.87793C22.20215 7.59911 21.36426 6.75634 20.33447 6.75634zM20.33447 9.51318c-.49023 0-.88916-.39355-.88916-.87793s.39893-.87891.88916-.87891c.47852 0 .86768.39453.86768.87891S20.81299 9.51318 20.33447 9.51318zM58.84766 8.13525h-32.0625c-.27637 0-.5.22363-.5.5s.22363.5.5.5h32.0625c.27637 0 .5-.22363.5-.5S59.12402 8.13525 58.84766 8.13525zM59.05518 35.92431c.1748 0 .33691-.0918.42725-.24121.09033-.15039.0957-.33594.01465-.49121-1.31348-2.50293-3.88916-4.05859-6.72314-4.05859-2.55566 0-4.9209 1.27344-6.32568 3.40332-.14001.20947-.24408.43103-.3584.64941l-.5249-.15527c-.20508-.6543-.47998-1.31934-.83496-2.01953l1.55322-2.84765c.10596-.19434.07129-.43555-.08545-.59277l-3.20996-3.21094c-.15674-.1582-.3999-.19141-.59424-.08496l-2.84424 1.56152c-.7002-.3623-1.3667-.6377-2.02344-.83691l-.92236-3.12695c-.0625-.21289-.25781-.3584-.47949-.3584h-4.54004c-.22168 0-.41699.14551-.47949.3584l-.92236 3.12695c-.65674.19922-1.32275.47461-2.02295.83594L25.3252 26.2749c-.19385-.10547-.43652-.07324-.59424.08398l-3.21973 3.21094c-.15771.1582-.19238.40039-.08496.5957l1.56836 2.84179c-.40771.77539-.71777 1.54688-.92285 2.29492-.01172.04297-.01758.08691-.01758.13184v.00403c-1.30211-2.72429-3.99461-4.30481-6.81982-4.30481-2.84521 0-5.42139 1.55566-6.72412 4.06054-.08008.1543-.07422.33984.01611.48926s.25244.24121.42676.24121l5.41309.00977 1.82861 2.74316-1.83105 2.79688H8.9541c-.17432 0-.33594.09082-.42676.24023-.09082.14844-.09766.33398-.01758.48926 1.30371 2.52832 3.93115 4.11523 6.78027 4.07031 2.87651 0 5.50844-1.64738 6.76563-4.28906.00085.04114.00537.08167.01611.12109.20947.76367.51904 1.53516.92236 2.2959l-1.56787 2.84082c-.10742.19531-.07275.4375.08496.5957l3.21973 3.20996c.15674.15625.3999.18848.59424.08398l2.83203-1.55859c.66748.34863 1.34619.62891 2.0249.83496l.92236 3.12695c.0625.21289.25781.3584.47949.3584h4.54004c.22168 0 .41699-.14551.47949-.3584l.92236-3.12695c.67822-.20605 1.35791-.48633 2.02588-.83496l2.84229 1.55859c.19434.10645.43701.07324.59375-.08496l3.20996-3.20996c.15674-.15723.19141-.39844.08545-.59277l-1.55273-2.84668c.34717-.68066.62695-1.3584.83496-2.02148l.50226-.14856c.1076.21765.22467.43494.36932.64172 1.41211 2.13574 3.75635 3.4043 6.27734 3.4043.02002 0 .04004 0 .05957 0 2.84717 0 5.41992-1.55957 6.71436-4.07031.08008-.15527.07324-.34082-.01758-.48926-.09082-.14941-.25244-.24023-.42676-.24023h-5.39941l-1.83154-2.79688 1.8291-2.74316L59.05518 35.92431zM21.33252 41.16064c-1.09478 2.6253-3.49401 4.11328-6.04639 4.11328-2.23535 0-4.22998-1.04102-5.44971-2.7998h4.79785c.16846 0 .32617-.08496.41846-.22656l2.15967-3.2998c.10938-.16699.10889-.38379-.00244-.55078l-2.15967-3.24023c-.09229-.13867-.24805-.22266-.41504-.22266l-4.7959-.00781c1.21533-1.74121 3.21387-2.79297 5.39502-2.79297 2.75226 0 5.13551 1.71138 6.09521 4.11621.07568.18945.25977.31445.46436.31445 6.16871 0 12.37473 0 18.62744 0 .54613 1.29472.6194 2.80949.12207 4.29004-3.65067 0-15.13262 0-18.74951 0C21.59229 40.854 21.41064 40.97509 21.33252 41.16064zM27.87354 35.56396c1.16406-2.26953 3.54199-3.75 6.13037-3.75 2.66016 0 4.97314 1.51562 6.12061 3.75H27.87354zM40.12354 41.854c-1.16553 2.26367-3.53906 3.74023-6.11963 3.74023s-4.9541-1.47656-6.11914-3.74023H40.12354zM45.02197 41.49462c-.16357.04883-.2915.17773-.33887.3418-.21631.75684-.53955 1.54199-.96045 2.33203-.0791.14844-.07813.32715.00244.47461l1.50098 2.75195L42.5459 50.0747l-2.75146-1.50879c-.14941-.08203-.33105-.08301-.48145.00098-.76563.4209-1.54688.74316-2.32129.95508-.16699.0459-.29834.1748-.34717.34082L35.75 52.89404h-3.79199l-.89453-3.03125c-.04883-.16602-.18018-.29492-.34717-.34082-.7749-.21191-1.55566-.53418-2.3208-.95508-.15039-.08398-.33203-.08301-.48242-.00098l-2.7417 1.50879-2.6875-2.67871 1.51807-2.75098c.08301-.15039.08252-.33398-.00146-.48438-.41748-.74902-.73584-1.50684-.94629-2.25488V41.854h3.74573c1.24133 2.84338 4.0816 4.74023 7.20398 4.74023 4.04625 0 7.6879-3.20395 7.86749-7.47485.19834-4.94431-3.70715-8.30542-7.86749-8.30542-3.12982 0-5.97418 1.90039-7.21466 4.75H23.0542v-.06152c.20654-.73145.5249-1.49023.94775-2.25684.08252-.15039.08252-.33203 0-.48242l-1.51807-2.75097 2.6875-2.67969 2.7417 1.50977c.14893.08105.32861.08301.47851.00195.81837-.44141 1.57862-.75488 2.32422-.95801.16699-.0459.29883-.1748.34766-.34082l.89453-3.03125H35.75l.89453 3.03125c.04883.16602.18066.29492.34766.34082.74512.20313 1.50537.5166 2.3252.95801.14893.08105.32861.0791.47754-.00195l2.75098-1.50977 2.68018 2.68066-1.50098 2.75195c-.08008.14648-.08154.32422-.00342.47168.43311.82422.74805 1.58789.96143 2.33496.04736.16504.17578.29395.33984.3418l3.021.89258v3.79395l-1.85107.54395c-.00604.00171-.01019.00684-.01611.00879L45.02197 41.49462zM52.95801 35.15673l-2.16016 3.24023c-.11133.16699-.11182.38379-.00244.55078l2.16016 3.2998c.09229.1416.25.22656.41846.22656h4.7876c-1.20947 1.74512-3.20605 2.7998-5.3916 2.7998-.01709 0-.03418 0-.05176 0-2.1875 0-4.22119-1.10254-5.4541-2.96582-.08203-.11743-.15588-.2417-.22382-.36792l1.64471-.48657c.21289-.0625.35889-.25781.35889-.47949v-4.54004c0-.2207-.14502-.41602-.35693-.47949l-1.6377-.48926c.07178-.12598.14941-.25195.23242-.37598 1.2207-1.85059 3.27393-2.95605 5.49219-2.95605 2.17188 0 4.16895 1.05176 5.39209 2.79297l-4.79297.00781C53.20605 34.93407 53.05078 35.01806 52.95801 35.15673z"/></svg>